Coordinates
version=1
nRows=18
nColumns=19
inDegrees=yes

Units are S.I. units (second, meters, Newtons, ...)
If the header above contains a line with 'inDegrees', this indicates whether rotational values are in degrees (yes) or radians (no).

endheader
time	pelvis_tilt	pelvis_list	pelvis_rotation	pelvis_tx	pelvis_ty	pelvis_tz	hip_flexion_r	hip_adduction_r	hip_rotation_r	knee_angle_r	knee_angle_r_beta	ankle_angle_r	hip_flexion_l	hip_adduction_l	hip_rotation_l	knee_angle_l	knee_angle_l_beta	ankle_angle_l
     16.59333333	     -3.16074578	      6.29828062	     10.30280748	      2.22551409	      0.95983284	      1.03236023	    -21.98926615	    -12.04440543	    -30.15612305	     67.00265217	      1.16941689	    -19.09024183	     29.65045301	      9.11340054	    -16.44969492	     24.39664984	      0.42580187	     -5.34335336
     16.60000000	     -2.63398437	      7.55348560	     10.64967593	      2.22513511	      0.95593033	      1.03040451	    -21.30879501	    -14.32023116	    -30.47115158	     71.86088220	      1.25420900	    -17.76880326	     28.18781147	     10.16091554	    -17.47595443	     26.49841406	      0.46248457	     -3.20649433
     16.60666667	     -2.17605066	      8.91385199	     10.91100595	      2.22441427	      0.95184641	      1.02869416	    -20.38991542	    -16.71077706	    -30.45296259	     76.67631225	      1.33825411	    -16.21693152	     26.70555698	     11.30911966	    -18.26922905	     28.60376808	      0.49922993	     -0.78440799
     16.61333333	     -1.92238778	     10.40508437	     10.99182732	      2.22326086	      0.94756549	      1.02727490	    -18.98028342	    -19.30123699	    -29.92044941	     81.47589969	      1.42202271	    -14.53674645	     25.34184411	     12.60282677	    -18.93072097	     30.55821218	      0.53334142	      1.74986826
     16.62000000	     -1.79264371	     11.70031163	     11.23719194	      2.22157534	      0.94315967	      1.02595222	    -17.18628828	    -21.53009141	    -29.08818921	     86.09508414	      1.50264269	    -12.73707276	     24.18064606	     13.79271594	    -19.06709407	     32.68047194	      0.57038184	      4.53260346
     16.62666667	     -1.54208485	     12.82112126	     11.60114567	      2.21934388	      0.93911433	      1.02476193	    -15.27660832	    -23.35326274	    -27.99297392	     90.43616886	      1.57840891	    -10.92105299	     22.90292634	     14.85934839	    -18.69577142	     34.84280829	      0.60812173	      7.51898387
     16.63333333	     -2.08383123	     13.79620086	     11.66896093	      2.21667614	      0.93471605	      1.02404217	    -11.78965030	    -25.14916862	    -25.81893777	     94.78597915	      1.65432742	     -9.31165324	     22.44732521	     15.81813656	    -18.46305012	     36.70308312	      0.64058965	     10.09901518
     16.64000000	     -2.32889517	     14.54007368	     11.86070635	      2.21359593	      0.93106537	      1.02351758	     -8.38464934	    -26.38558139	    -23.51713516	     98.71585541	      1.72291670	     -7.75567696	     21.65904342	     16.55502415	    -17.76841559	     38.53319752	      0.67253117	     12.68377889
     16.64666667	     -2.90580756	     14.93409962	     11.86618038	      2.21015316	      0.92773980	      1.02341386	     -3.96643676	    -27.06076504	    -20.43419196	    102.36703990	      1.78664189	     -6.57901632	     21.21099340	     16.93070771	    -17.06231428	     40.11909218	      0.70021025	     15.04689065
     16.65333333	     -3.48541218	     14.97880568	     11.77248435	      2.20652403	      0.92505702	      1.02368012	      0.84551469	    -27.06751860	    -17.04206119	    105.58886532	      1.84287335	     -5.67826821	     20.72500499	     16.92431446	    -16.21949969	     41.50091809	      0.72432766	     17.16111156
     16.66000000	     -4.04395028	     14.81759896	     11.52224899	      2.20287402	      0.92292756	      1.02435544	      5.87220495	    -26.60204195	    -13.51803698	    108.36540135	      1.89133305	     -4.91442159	     20.11308343	     16.64648352	    -15.39222389	     42.59532909	      0.74342874	     18.97651997
     16.66666667	     -4.30528141	     14.49834448	     10.84218737	      2.19948107	      0.92173348	      1.02569812	     10.80663907	    -25.58908565	     -9.78697730	    110.60377454	      1.93040003	     -4.35042141	     19.03713956	     16.00652023	    -14.90108962	     43.30317494	      0.75578298	     20.49561667
     16.67333333	     -4.63494681	     13.90292583	     10.05672050	      2.19626085	      0.92102051	      1.02726316	     15.80896807	    -24.02612800	     -6.26462581	    112.31085454	      1.96019420	     -3.99837160	     17.90228236	     15.07705350	    -14.43908393	     43.70482052	      0.76279302	     21.68317878
     16.68000000	     -4.95134093	     13.11338981	      9.11588447	      2.19338551	      0.92092715	      1.02900737	     20.66316881	    -22.01162011	     -3.04721731	    113.44969180	      1.98007066	     -3.74225962	     16.56533551	     13.92274637	    -14.11990737	     43.71666763	      0.76299979	     22.45676737
     16.68666667	     -5.01434284	     12.17831378	      7.93491293	      2.19099729	      0.92159890	      1.03091051	     24.99832789	    -19.63761339	     -0.23389228	    113.97754077	      1.98928336	     -3.58252317	     14.75839714	     12.56141341	    -14.05525375	     43.35948333	      0.75676575	     22.91222811
     16.69333333	     -5.40144368	     11.14534607	      6.66400295	      2.18901796	      0.92234112	      1.03285733	     29.42454218	    -17.06468667	      2.22562470	    114.00546729	      1.98977077	     -3.46570642	     13.12218926	     11.16164981	    -14.21602225	     42.66029661	      0.74456264	     22.89807876
     16.70000000	     -5.23485813	      9.93292261	      5.19435484	      2.18763356	      0.92434463	      1.03469540	     32.82121099	    -14.22465926	      4.08835861	    113.37175806	      1.97871046	     -3.35913491	     10.64400287	      9.55626155	    -14.67463719	     41.51580210	      0.72458744	     22.45410242
     16.70666667	     -5.25397563	      8.70390614	      3.73075890	      2.18656646	      0.92651436	      1.03628332	     36.06800632	    -11.42326761	      5.53549995	    112.25201308	      1.95916722	     -3.21138451	      8.22573015	      8.10206139	    -15.16639059	     40.09975481	      0.69987275	     21.45586233
